<svg xmlns="http://www.w3.org/2000/svg" viewBox="0 0 48 48" fill="none" role="img" aria-label="MasjidWeb">
  <defs>
    <linearGradient id="masjidweb-logo-bg" x1="4" y1="4" x2="44" y2="44" gradientUnits="userSpaceOnUse">
      <stop stop-color="#276D59"/>
      <stop offset="1" stop-color="#1f5a48"/>
    </linearGradient>
  </defs>
  <rect width="48" height="48" rx="10" fill="url(#masjidweb-logo-bg)"/>
  <g transform="translate(12 10)">
    <path d="M12 2C12 2 6 6 6 10V16H18V10C18 6 12 2 12 2Z" fill="#fff" fill-opacity="0.95"/>
    <rect x="10" y="16" width="4" height="6" fill="#fff" fill-opacity="0.95"/>
    <path d="M12 1C11.5 1 11 1.2 11 1.8C11 3 12 4 13 4C12.5 4 12 4.5 12 5C12 5.5 12.5 6 13 6C14 6 15 5 15 4C15 2.3 13.5 1 12 1Z" fill="#FFD700"/>
  </g>
</svg>
